{
	"asset":{
		"generator":"Khronos glTF Blender I/O v3.6.27",
		"version":"2.0"
	},
	"scene":0,
	"scenes":[
		{
			"name":"Scene",
			"nodes":[
				2,
				3
			]
		}
	],
	"nodes":[
		{
			"mesh":0,
			"name":"Object_2"
		},
		{
			"children":[
				0
			],
			"name":"1f6ed6180e054573a97459158f6007e6.obj.cleaner.materialmerger.gle"
		},
		{
			"children":[
				1
			],
			"name":"Sketchfab_model",
			"rotation":[
				-0.5298920273780823,
				0.4682033956050873,
				0.4682033956050873,
				0.5298920273780823
			],
			"scale":[
				0.9087337851524353,
				0.9087337851524353,
				0.9087337851524353
			]
		},
		{
			"name":"Empty",
			"rotation":[
				0.7071068286895752,
				0,
				0,
				0.7071068286895752
			],
			"translation":[
				2,
				0,
				0
			]
		}
	],
	"animations":[
		{
			"channels":[
				{
					"sampler":0,
					"target":{
						"node":2,
						"path":"scale"
					}
				}
			],
			"name":"Sketchfab_modelAction",
			"samplers":[
				{
					"input":8,
					"interpolation":"LINEAR",
					"output":9
				}
			]
		},
		{
			"channels":[
				{
					"sampler":0,
					"target":{
						"node":1,
						"path":"scale"
					}
				}
			],
			"name":"1f6ed6180e054573a97459158f6007e6.obj.cleaner.materialmerger.gle",
			"samplers":[
				{
					"input":10,
					"interpolation":"STEP",
					"output":11
				}
			]
		},
		{
			"channels":[
				{
					"sampler":0,
					"target":{
						"node":0,
						"path":"scale"
					}
				}
			],
			"name":"Object_2Action",
			"samplers":[
				{
					"input":10,
					"interpolation":"STEP",
					"output":12
				}
			]
		}
	],
	"materials":[
		{
			"name":"Material.001",
			"pbrMetallicRoughness":{
				"metallicFactor":0,
				"roughnessFactor":0.6000000238418579
			}
		},
		{
			"doubleSided":true,
			"name":"Material.003",
			"pbrMetallicRoughness":{
				"baseColorFactor":[
					0.14927302300930023,
					0.5090484619140625,
					0.8000000715255737,
					1
				],
				"metallicFactor":0,
				"roughnessFactor":0.5
			}
		}
	],
	"meshes":[
		{
			"name":"Object_0",
			"primitives":[
				{
					"attributes":{
						"POSITION":0,
						"NORMAL":1,
						"TEXCOORD_0":2
					},
					"indices":3,
					"material":0
				},
				{
					"attributes":{
						"POSITION":4,
						"NORMAL":5,
						"TEXCOORD_0":6
					},
					"indices":7,
					"material":1
				}
			]
		}
	],
	"accessors":[
		{
			"bufferView":0,
			"componentType":5126,
			"count":576,
			"max":[
				2.3993990421295166,
				1.3719810247421265,
				1.5689020156860352
			],
			"min":[
				-1.9854329824447632,
				-0.9574099779129028,
				-1.3864949941635132
			],
			"type":"VEC3"
		},
		{
			"bufferView":1,
			"componentType":5126,
			"count":576,
			"type":"VEC3"
		},
		{
			"bufferView":2,
			"componentType":5126,
			"count":576,
			"type":"VEC2"
		},
		{
			"bufferView":3,
			"componentType":5123,
			"count":2748,
			"type":"SCALAR"
		},
		{
			"bufferView":4,
			"componentType":5126,
			"count":9230,
			"max":[
				1.5870065689086914,
				-0.5321312546730042,
				0.6590703129768372
			],
			"min":[
				-0.8562837839126587,
				-1.083664894104004,
				-0.3105800151824951
			],
			"type":"VEC3"
		},
		{
			"bufferView":5,
			"componentType":5126,
			"count":9230,
			"type":"VEC3"
		},
		{
			"bufferView":6,
			"componentType":5126,
			"count":9230,
			"type":"VEC2"
		},
		{
			"bufferView":7,
			"componentType":5123,
			"count":22320,
			"type":"SCALAR"
		},
		{
			"bufferView":8,
			"componentType":5126,
			"count":251,
			"max":[
				10.416666666666666
			],
			"min":[
				0
			],
			"type":"SCALAR"
		},
		{
			"bufferView":9,
			"componentType":5126,
			"count":251,
			"type":"VEC3"
		},
		{
			"bufferView":10,
			"componentType":5126,
			"count":2,
			"max":[
				10.416666666666666
			],
			"min":[
				0
			],
			"type":"SCALAR"
		},
		{
			"bufferView":11,
			"componentType":5126,
			"count":2,
			"type":"VEC3"
		},
		{
			"bufferView":12,
			"componentType":5126,
			"count":2,
			"type":"VEC3"
		}
	],
	"bufferViews":[
		{
			"buffer":0,
			"byteLength":6912,
			"byteOffset":0,
			"target":34962
		},
		{
			"buffer":0,
			"byteLength":6912,
			"byteOffset":6912,
			"target":34962
		},
		{
			"buffer":0,
			"byteLength":4608,
			"byteOffset":13824,
			"target":34962
		},
		{
			"buffer":0,
			"byteLength":5496,
			"byteOffset":18432,
			"target":34963
		},
		{
			"buffer":0,
			"byteLength":110760,
			"byteOffset":23928,
			"target":34962
		},
		{
			"buffer":0,
			"byteLength":110760,
			"byteOffset":134688,
			"target":34962
		},
		{
			"buffer":0,
			"byteLength":73840,
			"byteOffset":245448,
			"target":34962
		},
		{
			"buffer":0,
			"byteLength":44640,
			"byteOffset":319288,
			"target":34963
		},
		{
			"buffer":0,
			"byteLength":1004,
			"byteOffset":363928
		},
		{
			"buffer":0,
			"byteLength":3012,
			"byteOffset":364932
		},
		{
			"buffer":0,
			"byteLength":8,
			"byteOffset":367944
		},
		{
			"buffer":0,
			"byteLength":24,
			"byteOffset":367952
		},
		{
			"buffer":0,
			"byteLength":24,
			"byteOffset":367976
		}
	],
	"buffers":[
		{
			"byteLength":368000,
			"uri":"data:application/octet-stream;base64,"
		}
	]
}
