{
	"asset":{
		"generator":"Khronos glTF Blender I/O v3.6.27",
		"version":"2.0"
	},
	"scene":0,
	"scenes":[
		{
			"name":"Scene",
			"nodes":[
				0
			]
		}
	],
	"nodes":[
		{
			"mesh":0,
			"name":"Object_2.002",
			"rotation":[
				-0.5298920273780823,
				0.4682033956050873,
				0.4682033956050873,
				0.5298920273780823
			],
			"scale":[
				0.9023741483688354,
				0.9023741483688354,
				0.9023742079734802
			],
			"translation":[
				0,
				0,
				0.22655725479125977
			]
		}
	],
	"animations":[
		{
			"channels":[
				{
					"sampler":0,
					"target":{
						"node":0,
						"path":"scale"
					}
				}
			],
			"name":"Object_2Action",
			"samplers":[
				{
					"input":8,
					"interpolation":"STEP",
					"output":9
				}
			]
		}
	],
	"materials":[
		{
			"name":"Material.011",
			"pbrMetallicRoughness":{
				"metallicFactor":0,
				"roughnessFactor":0.6000000238418579
			}
		},
		{
			"doubleSided":true,
			"name":"Material.004",
			"pbrMetallicRoughness":{
				"baseColorFactor":[
					0.14927302300930023,
					0.5090484619140625,
					0.8000000715255737,
					1
				],
				"metallicFactor":0,
				"roughnessFactor":0.5
			}
		}
	],
	"meshes":[
		{
			"name":"Object_0.005",
			"primitives":[
				{
					"attributes":{
						"POSITION":0,
						"NORMAL":1,
						"TEXCOORD_0":2
					},
					"indices":3,
					"material":0
				},
				{
					"attributes":{
						"POSITION":4,
						"NORMAL":5,
						"TEXCOORD_0":6
					},
					"indices":7,
					"material":1
				}
			]
		}
	],
	"accessors":[
		{
			"bufferView":0,
			"componentType":5126,
			"count":576,
			"max":[
				2.3993990421295166,
				1.3719810247421265,
				1.5689020156860352
			],
			"min":[
				-1.9854329824447632,
				-0.9574099779129028,
				-1.3864949941635132
			],
			"type":"VEC3"
		},
		{
			"bufferView":1,
			"componentType":5126,
			"count":576,
			"type":"VEC3"
		},
		{
			"bufferView":2,
			"componentType":5126,
			"count":576,
			"type":"VEC2"
		},
		{
			"bufferView":3,
			"componentType":5123,
			"count":2748,
			"type":"SCALAR"
		},
		{
			"bufferView":4,
			"componentType":5126,
			"count":81488,
			"max":[
				2.2362565994262695,
				-0.13088661432266235,
				0.5992054343223572
			],
			"min":[
				-1.5418212413787842,
				-1.074472188949585,
				-0.35101309418678284
			],
			"type":"VEC3"
		},
		{
			"bufferView":5,
			"componentType":5126,
			"count":81488,
			"type":"VEC3"
		},
		{
			"bufferView":6,
			"componentType":5126,
			"count":81488,
			"type":"VEC2"
		},
		{
			"bufferView":7,
			"componentType":5125,
			"count":122808,
			"type":"SCALAR"
		},
		{
			"bufferView":8,
			"componentType":5126,
			"count":251,
			"max":[
				10.416666666666666
			],
			"min":[
				0
			],
			"type":"SCALAR"
		},
		{
			"bufferView":9,
			"componentType":5126,
			"count":251,
			"type":"VEC3"
		}
	],
	"bufferViews":[
		{
			"buffer":0,
			"byteLength":6912,
			"byteOffset":0,
			"target":34962
		},
		{
			"buffer":0,
			"byteLength":6912,
			"byteOffset":6912,
			"target":34962
		},
		{
			"buffer":0,
			"byteLength":4608,
			"byteOffset":13824,
			"target":34962
		},
		{
			"buffer":0,
			"byteLength":5496,
			"byteOffset":18432,
			"target":34963
		},
		{
			"buffer":0,
			"byteLength":977856,
			"byteOffset":23928,
			"target":34962
		},
		{
			"buffer":0,
			"byteLength":977856,
			"byteOffset":1001784,
			"target":34962
		},
		{
			"buffer":0,
			"byteLength":651904,
			"byteOffset":1979640,
			"target":34962
		},
		{
			"buffer":0,
			"byteLength":491232,
			"byteOffset":2631544,
			"target":34963
		},
		{
			"buffer":0,
			"byteLength":1004,
			"byteOffset":3122776
		},
		{
			"buffer":0,
			"byteLength":3012,
			"byteOffset":3123780
		}
	],
	"buffers":[
		{
			"byteLength":3126792,
			"uri":"data:application/octet-stream;base64,"
		}
	]
}
