{
  "accessors": [
    {
      "bufferView": 1,
      "componentType": 5126,
      "count": 6025,
      "max": [
        0.400219202041626,
        0.48916512727737427,
        0.09999939799308777
      ],
      "min": [
        -0.39239925146102905,
        -0.49061843752861023,
        0.09364256262779236
      ],
      "type": "VEC3"
    },
    {
      "bufferView": 1,
      "byteOffset": 72300,
      "componentType": 5126,
      "count": 6025,
      "max": [
        0.9998083710670471,
        0.9999935626983643,
        1.0
      ],
      "min": [
        -0.9998885989189148,
        -0.9986060261726379,
        -1.0
      ],
      "type": "VEC3"
    },
    {
      "bufferView": 0,
      "componentType": 5125,
      "count": 12516,
      "type": "SCALAR"
    }
  ],
  "asset": {
    "extras": {
      "author": "CODAME (https://sketchfab.com/codame)",
      "license": "CC-BY-4.0 (http://creativecommons.org/licenses/by/4.0/)",
      "source": "https://sketchfab.com/3d-models/desmond-tutu-quote-2-remix-blacklivesmatter-0fbe9630238d46dabbdd3027b53de5c2",
      "title": "Desmond Tutu quote 2 remix! #blacklivesmatter"
    },
    "generator": "Sketchfab-12.68.0",
    "version": "2.0"
  },
  "bufferViews": [
    {
      "buffer": 0,
      "byteLength": 50064,
      "name": "floatBufferViews",
      "target": 34963
    },
    {
      "buffer": 0,
      "byteLength": 144600,
      "byteOffset": 50064,
      "byteStride": 12,
      "name": "floatBufferViews",
      "target": 34962
    }
  ],
  "buffers": [
    {
      "byteLength": 194664,
      "uri": "scene.bin"
    }
  ],
  "materials": [
    {
      "doubleSided": true,
      "name": "Scene_-_Root",
      "pbrMetallicRoughness": {
        "metallicFactor": 0.0,
        "roughnessFactor": 0.6
      }
    }
  ],
  "meshes": [
    {
      "name": "Object_0",
      "primitives": [
        {
          "attributes": {
            "NORMAL": 1,
            "POSITION": 0
          },
          "indices": 2,
          "material": 0,
          "mode": 4
        }
      ]
    }
  ],
  "nodes": [
    {
      "children": [
        1
      ],
      "matrix": [
        1.0,
        0.0,
        0.0,
        0.0,
        0.0,
        2.220446049250313e-16,
        -1.0,
        0.0,
        0.0,
        1.0,
        2.220446049250313e-16,
        0.0,
        0.0,
        0.0,
        0.0,
        1.0
      ],
      "name": "Sketchfab_model"
    },
    {
      "children": [
        2
      ],
      "name": "c462021e5d704f0aa2ce658983b1ae24.stl.cleaner.materialmerger.gles"
    },
    {
      "mesh": 0,
      "name": "Object_2"
    }
  ],
  "scene": 0,
  "scenes": [
    {
      "name": "Sketchfab_Scene",
      "nodes": [
        0
      ]
    }
  ]
}
