{
	"asset":{
		"generator":"Khronos glTF Blender I/O v3.6.27",
		"version":"2.0"
	},
	"scene":0,
	"scenes":[
		{
			"name":"Scene",
			"nodes":[
				2
			]
		}
	],
	"nodes":[
		{
			"mesh":0,
			"name":"Object_2"
		},
		{
			"children":[
				0
			],
			"name":"c462021e5d704f0aa2ce658983b1ae24.stl.cleaner.materialmerger.gle"
		},
		{
			"children":[
				1
			],
			"name":"Sketchfab_model",
			"rotation":[
				-0.0014825396938249469,
				0.7084264159202576,
				-0.0012378683313727379,
				0.7057820558547974
			],
			"scale":[
				6.958924770355225,
				6.958925247192383,
				6.958925247192383
			],
			"translation":[
				-0.45656171441078186,
				0.028469713404774666,
				0.02191508561372757
			]
		}
	],
	"materials":[
		{
			"doubleSided":true,
			"name":"Material.001",
			"pbrMetallicRoughness":{
				"baseColorFactor":[
					0.005980528425425291,
					0.005980528425425291,
					0.005980528425425291,
					1
				],
				"metallicFactor":0,
				"roughnessFactor":0.5
			}
		}
	],
	"meshes":[
		{
			"name":"Object_0",
			"primitives":[
				{
					"attributes":{
						"POSITION":0,
						"NORMAL":1,
						"TEXCOORD_0":2
					},
					"indices":3,
					"material":0
				}
			]
		}
	],
	"accessors":[
		{
			"bufferView":0,
			"componentType":5126,
			"count":9475,
			"max":[
				0.400219202041626,
				0.48916512727737427,
				0.09999939799308777
			],
			"min":[
				-0.39239925146102905,
				-0.49061843752861023,
				0.09364256262779236
			],
			"type":"VEC3"
		},
		{
			"bufferView":1,
			"componentType":5126,
			"count":9475,
			"type":"VEC3"
		},
		{
			"bufferView":2,
			"componentType":5126,
			"count":9475,
			"type":"VEC2"
		},
		{
			"bufferView":3,
			"componentType":5123,
			"count":12516,
			"type":"SCALAR"
		}
	],
	"bufferViews":[
		{
			"buffer":0,
			"byteLength":113700,
			"byteOffset":0,
			"target":34962
		},
		{
			"buffer":0,
			"byteLength":113700,
			"byteOffset":113700,
			"target":34962
		},
		{
			"buffer":0,
			"byteLength":75800,
			"byteOffset":227400,
			"target":34962
		},
		{
			"buffer":0,
			"byteLength":25032,
			"byteOffset":303200,
			"target":34963
		}
	],
	"buffers":[
		{
			"byteLength":328232,
			"uri":"data:application/octet-stream;base64,"
		}
	]
}
